<svg xmlns="http://www.w3.org/2000/svg" width="12" height="18" viewBox="0 0 12 18">
    <path fill="#FFF" fill-rule="nonzero" d="M5.754 0C8.9 0 12 1.434 12 4.864c0 3.162-3.664 4.379-4.45 5.522-.592.85-.394 2.044-2.017 2.044-1.058 0-1.574-.85-1.574-1.629 0-2.896 4.302-3.552 4.302-5.937 0-1.313-.883-2.09-2.36-2.09-3.147 0-1.918 3.209-4.302 3.209C.74 5.983 0 5.473 0 4.5 0 2.114 2.753 0 5.754 0zM5.63 14.01c1.105 0 2.017.898 2.017 1.995C7.648 17.1 6.738 18 5.63 18c-1.106 0-2.017-.898-2.017-1.995 0-1.096.91-1.996 2.017-1.996z"/>
</svg>